<svg xmlns="http://www.w3.org/2000/svg" xmlns:xlink="http://www.w3.org/1999/xlink" width="500" zoomAndPan="magnify" viewBox="0 0 375 374.999991" height="500" preserveAspectRatio="xMidYMid meet" version="1.2"><defs><clipPath id="d13a57ccdc"><path d="M 68 112 L 190.5 112 L 190.5 200 L 68 200 Z M 68 112 "/></clipPath><clipPath id="a042d5290c"><path d="M 13 49.820312 L 190.5 49.820312 L 190.5 137 L 13 137 Z M 13 49.820312 "/></clipPath><clipPath id="68fdad6249"><path d="M 184.484375 164 L 307 164 L 307 251 L 184.484375 251 Z M 184.484375 164 "/></clipPath><clipPath id="8e1e75949f"><path d="M 252 156 L 374.984375 156 L 374.984375 243 L 252 243 Z M 252 156 "/></clipPath><clipPath id="cb98f6707f"><path d="M 184.484375 227 L 362 227 L 362 314 L 184.484375 314 Z M 184.484375 227 "/></clipPath><clipPath id="b587043aa7"><path d="M 198 93.542969 L 374.984375 93.542969 L 374.984375 181 L 198 181 Z M 198 93.542969 "/></clipPath></defs><g id="32a540eafd"><path style=" stroke:none;fill-rule:evenodd;fill:#545454;fill-opacity:1;" d="M 95.25 175.625 L 68.042969 159.933594 L 27.207031 136.359375 L 0 120.625 L 0 152.089844 L 27.207031 167.777344 L 54.414062 183.511719 L 95.25 207.042969 L 122.457031 191.355469 Z M 95.25 175.625 "/><g clip-rule="nonzero" clip-path="url(#d13a57ccdc)"><path style=" stroke:none;fill-rule:evenodd;fill:#545454;fill-opacity:1;" d="M 95.25 144.203125 L 122.457031 159.933594 L 163.292969 183.511719 L 190.5 199.199219 L 190.5 167.777344 L 163.292969 152.089844 L 136.085938 136.359375 L 95.25 112.78125 L 68.042969 128.511719 Z M 95.25 144.203125 "/></g><path style=" stroke:none;fill-rule:evenodd;fill:#545454;fill-opacity:1;" d="M 149.664062 207.042969 L 95.25 238.511719 L 27.207031 199.199219 L 0 183.511719 L 0 214.933594 L 47.648438 242.410156 L 95.25 269.933594 L 142.851562 242.410156 L 149.664062 238.511719 L 176.875 222.777344 Z M 149.664062 207.042969 "/><g clip-rule="nonzero" clip-path="url(#a042d5290c)"><path style=" stroke:none;fill-rule:evenodd;fill:#545454;fill-opacity:1;" d="M 134.605469 104.085938 L 163.292969 120.625 L 190.5 136.359375 L 190.5 104.9375 L 142.851562 77.414062 L 95.25 49.9375 L 47.648438 77.414062 L 40.835938 81.359375 L 13.625 97.09375 L 40.835938 112.78125 L 68.042969 97.09375 L 95.25 81.359375 Z M 134.605469 104.085938 "/></g><g clip-rule="nonzero" clip-path="url(#68fdad6249)"><path style=" stroke:none;fill-rule:evenodd;fill:#545454;fill-opacity:1;" d="M 279.734375 219.347656 L 252.527344 203.660156 L 211.691406 180.082031 L 184.484375 164.347656 L 184.484375 195.8125 L 211.691406 211.503906 L 238.898438 227.234375 L 279.734375 250.769531 L 306.941406 235.078125 Z M 279.734375 219.347656 "/></g><g clip-rule="nonzero" clip-path="url(#8e1e75949f)"><path style=" stroke:none;fill-rule:evenodd;fill:#545454;fill-opacity:1;" d="M 279.734375 187.925781 L 306.941406 203.660156 L 347.777344 227.234375 L 374.984375 242.925781 L 374.984375 211.503906 L 347.777344 195.8125 L 320.570312 180.082031 L 279.734375 156.503906 L 252.527344 172.238281 Z M 279.734375 187.925781 "/></g><g clip-rule="nonzero" clip-path="url(#cb98f6707f)"><path style=" stroke:none;fill-rule:evenodd;fill:#545454;fill-opacity:1;" d="M 334.148438 250.769531 L 306.941406 266.5 L 279.734375 282.234375 L 211.691406 242.925781 L 184.484375 227.234375 L 184.484375 258.65625 L 232.132812 286.132812 L 279.734375 313.65625 L 327.335938 286.132812 L 334.148438 282.234375 L 361.359375 266.5 Z M 334.148438 250.769531 "/></g><g clip-rule="nonzero" clip-path="url(#b587043aa7)"><path style=" stroke:none;fill-rule:evenodd;fill:#545454;fill-opacity:1;" d="M 319.089844 147.808594 L 347.777344 164.347656 L 374.984375 180.082031 L 374.984375 148.660156 L 327.335938 121.136719 L 279.734375 93.660156 L 232.132812 121.136719 L 225.320312 125.082031 L 198.109375 140.816406 L 225.320312 156.503906 L 252.527344 140.816406 L 279.734375 125.082031 Z M 319.089844 147.808594 "/></g></g></svg>